<svg width="24" height="24" viewBox="0 0 24 24" fill="none" xmlns="http://www.w3.org/2000/svg">
<path d="M10.2568 19.3364C10.6138 19.3364 10.896 19.1787 11.0952 18.8716L18.9395 6.52002C19.0889 6.2793 19.147 6.09668 19.147 5.90576C19.147 5.44922 18.8481 5.15039 18.3916 5.15039C18.0596 5.15039 17.877 5.2583 17.6777 5.57373L10.2236 17.4521L6.35547 12.3887C6.14795 12.0981 5.94043 11.9819 5.6416 11.9819C5.16846 11.9819 4.84473 12.3057 4.84473 12.7622C4.84473 12.9531 4.92773 13.1689 5.08545 13.3682L9.39355 18.855C9.64258 19.1787 9.8999 19.3364 10.2568 19.3364Z" fill="black"/>
</svg>
