<?xml version='1.0' encoding='iso-8859-1'?>
<!DOCTYPE svg PUBLIC '-//W3C//DTD SVG 1.1//EN' 'http://www.w3.org/Graphics/SVG/1.1/DTD/svg11.dtd'>
<!-- Uploaded to: SVG Repo, www.svgrepo.com, Generator: SVG Repo Mixer Tools -->
<svg fill="#ffffff" height="800px" width="800px" version="1.1" xmlns="http://www.w3.org/2000/svg" viewBox="0 0 244.683 244.683" xmlns:xlink="http://www.w3.org/1999/xlink" enable-background="new 0 0 244.683 244.683">
  <g>
    <path d="m244.054,118.587l-25.417-79.232c-1.073-3.344-3.384-6.07-6.508-7.676-3.123-1.605-6.685-1.898-10.029-0.827l-129.21,41.45c-6.904,2.215-10.718,9.633-8.504,16.537l5.171,16.12h-56.409c-7.25,0-13.148,5.898-13.148,13.148v83.209c0,7.25 5.898,13.148 13.148,13.148h144.695c7.25,0 13.148-5.898 13.148-13.148v-45.482l64.558-20.71c6.904-2.214 10.719-9.632 8.505-16.537zm-86.21,83.878h-144.696c-0.633,0-1.148-0.515-1.148-1.148v-83.209c0-0.633 0.515-1.148 1.148-1.148h144.695c0.633,0 1.148,0.515 1.148,1.148v83.209c0.001,0.633-0.514,1.148-1.147,1.148zm48.797-160.114c0.193,0.099 0.448,0.296 0.568,0.67l5.072,15.81-131.396,42.153-5.072-15.811c-0.194-0.603 0.14-1.251 0.743-1.444l129.209-41.45c0.126-0.041 0.245-0.057 0.354-0.057 0.215,7.10543e-15 0.394,0.063 0.522,0.129zm-48.797,62.608h-50.064l108.167-34.7 16.68,51.994c0.193,0.604-0.14,1.252-0.743,1.445l-60.892,19.534v-25.125c-2.84217e-14-7.25-5.898-13.148-13.148-13.148z"/>
    <path d="m56.54,134.712h-25.666c-3.313,0-6,2.687-6,6s2.687,6 6,6h25.666c3.313,0 6-2.687 6-6s-2.686-6-6-6z"/>
    <path d="m85.207,146.712c3.313,0 6-2.687 6-6s-2.687-6-6-6h-9.333c-3.313,0-6,2.687-6,6s2.687,6 6,6h9.333z"/>
    <path d="m149.207,160.712c0-3.313-2.687-6-6-6h-29.333c-3.313,0-6,2.687-6,6v26c0,3.313 2.687,6 6,6h29.333c3.313,0 6-2.687 6-6v-26zm-12,6v14h-17.333v-14h17.333z"/>
  </g>
</svg>
