<svg width="20" height="21" viewBox="0 0 20 21" fill="none" xmlns="http://www.w3.org/2000/svg">
<path d="M10 5.86667V8.64167" stroke="#ffffff" stroke-width="1.5" stroke-miterlimit="10" stroke-linecap="round"/>
<path d="M10.0167 2.16666C6.95 2.16666 4.46667 4.64999 4.46667 7.71666V9.46666C4.46667 10.0333 4.23333 10.8833 3.94167 11.3667L2.88333 13.1333C2.23333 14.225 2.68333 15.4417 3.88333 15.8417C7.86667 17.1667 12.175 17.1667 16.1583 15.8417C17.2833 15.4667 17.7667 14.15 17.1583 13.1333L16.1 11.3667C15.8083 10.8833 15.575 10.025 15.575 9.46666V7.71666C15.5667 4.66666 13.0667 2.16666 10.0167 2.16666Z" stroke="#ffffff" stroke-miterlimit="10" stroke-linecap="round"/>
<path d="M12.775 16.1833C12.775 17.7083 11.525 18.9583 10 18.9583C9.24167 18.9583 8.54166 18.6417 8.04166 18.1417C7.54166 17.6417 7.225 16.9417 7.225 16.1833" stroke="#ffffff" stroke-miterlimit="10"/>
</svg>

