<svg width="20" height="20" viewBox="0 0 20 20" fill="none" xmlns="http://www.w3.org/2000/svg">
<path d="M12.7716 1H7.22843C6.69799 1 6.18929 1.21071 5.81421 1.58579L1.58579 5.81421C1.21071 6.18929 1 6.69799 1 7.22843V12.7716C1 13.302 1.21071 13.8107 1.58579 14.1858L5.81421 18.4142C6.18929 18.7893 6.69799 19 7.22843 19H12.7716C13.302 19 13.8107 18.7893 14.1858 18.4142L18.4142 14.1858C18.7893 13.8107 19 13.302 19 12.7716V7.22843C19 6.69799 18.7893 6.18929 18.4142 5.81421L14.1858 1.58579C13.8107 1.21071 13.302 1 12.7716 1Z" stroke="#ACACAC" stroke-width="2"/>
<path d="M10 5V11" stroke="#ACACAC" stroke-width="2" stroke-linecap="round"/>
<circle cx="1" cy="1" r="1" transform="matrix(1 0 0 -1 9 16)" fill="#ACACAC"/>
</svg>
