<svg width="29" height="32" viewBox="0 0 29 32" fill="none" xmlns="http://www.w3.org/2000/svg">
<path d="M11.6401 15.89C11.6401 16.86 12.3901 17.64 13.3101 17.64H15.1901C15.9901 17.64 16.6401 16.96 16.6401 16.11C16.6401 15.2 16.2401 14.87 15.6501 14.66L12.6401 13.61C12.0501 13.4 11.6501 13.08 11.6501 12.16C11.6501 11.32 12.3001 10.63 13.1001 10.63H14.9801C15.9001 10.63 16.6501 11.41 16.6501 12.38" stroke="white" stroke-width="1.5" stroke-linecap="round" stroke-linejoin="round"/>
<path d="M14.1401 9.63998V18.64" stroke="white" stroke-width="1.5" stroke-linecap="round" stroke-linejoin="round"/>
<path d="M7.19412 21.3341C3.22297 17.5 3.11173 11.1653 6.94582 7.19414C10.7799 3.22298 17.1146 3.11174 21.0858 6.94583C25.0569 10.7799 25.1682 17.1146 21.3341 21.0858" stroke="white" stroke-width="1.5" stroke-linecap="round" stroke-linejoin="round"/>
<path d="M10.821 27.7616L13.6144 30.6246L16.4774 27.8311" stroke="white" stroke-width="1.5" stroke-linecap="round" stroke-linejoin="round"/>
<path d="M13.7186 22.14L13.6318 29.2105" stroke="white" stroke-width="1.5" stroke-linecap="round" stroke-linejoin="round"/>
</svg>
